<svg xmlns="http://www.w3.org/2000/svg" viewBox="0 0 1800 1200" preserveAspectRatio="xMidYMid slice">
  <defs>
    <linearGradient id="sky" x1="0" x2="1" y1="0" y2="1">
      <stop offset="0" stop-color="#090612"/>
      <stop offset="0.42" stop-color="#130d24"/>
      <stop offset="1" stop-color="#090612"/>
    </linearGradient>
    <radialGradient id="cyan" cx="66%" cy="27%" r="48%">
      <stop offset="0" stop-color="#b185ff" stop-opacity="0.56"/>
      <stop offset="0.45" stop-color="#b185ff" stop-opacity="0.14"/>
      <stop offset="1" stop-color="#b185ff" stop-opacity="0"/>
    </radialGradient>
    <radialGradient id="coral" cx="25%" cy="74%" r="42%">
      <stop offset="0" stop-color="#7b4dff" stop-opacity="0.36"/>
      <stop offset="0.5" stop-color="#7b4dff" stop-opacity="0.12"/>
      <stop offset="1" stop-color="#7b4dff" stop-opacity="0"/>
    </radialGradient>
    <filter id="grain">
      <feTurbulence type="fractalNoise" baseFrequency="0.82" numOctaves="4" seed="12"/>
      <feColorMatrix type="saturate" values="0"/>
      <feComponentTransfer>
        <feFuncA type="table" tableValues="0 0.14"/>
      </feComponentTransfer>
    </filter>
    <filter id="softGlow" x="-30%" y="-30%" width="160%" height="160%">
      <feGaussianBlur stdDeviation="12" result="blur"/>
      <feMerge>
        <feMergeNode in="blur"/>
        <feMergeNode in="SourceGraphic"/>
      </feMerge>
    </filter>
  </defs>
  <rect width="1800" height="1200" fill="url(#sky)"/>
  <rect width="1800" height="1200" fill="url(#cyan)"/>
  <rect width="1800" height="1200" fill="url(#coral)"/>
  <g opacity="0.48" filter="url(#softGlow)">
    <path d="M-120 782C235 610 487 553 715 606c213 50 396 184 641 112 165-48 313-161 574-151" fill="none" stroke="#b185ff" stroke-width="2"/>
    <path d="M-80 856c346-150 588-189 793-117 222 78 377 226 628 165 179-43 311-178 551-196" fill="none" stroke="#7b4dff" stroke-width="2"/>
    <path d="M148 312c219 69 367 84 524 26 173-64 282-171 483-141 171 25 305 132 515 99" fill="none" stroke="#8f6bff" stroke-width="2"/>
  </g>
  <g opacity="0.18">
    <path d="M1430 0h370v1200h-620z" fill="#b185ff"/>
    <path d="M-80 640 520 0h255L175 1200H-80z" fill="#ffffff"/>
    <path d="M1020 1200 1800 320v355l-475 525z" fill="#7b4dff"/>
  </g>
  <g opacity="0.18" stroke="#ffffff" stroke-width="1">
    <path d="M0 988h1800M0 874h1800M0 760h1800M0 646h1800"/>
    <path d="M190 1200 720 0M435 1200 900 0M680 1200 1080 0M925 1200 1260 0M1170 1200 1440 0M1415 1200 1620 0"/>
  </g>
  <g opacity="0.55" filter="url(#softGlow)">
    <circle cx="1180" cy="300" r="4" fill="#b185ff"/>
    <circle cx="1268" cy="360" r="2.8" fill="#ffffff"/>
    <circle cx="1010" cy="430" r="3.2" fill="#7b4dff"/>
    <circle cx="1515" cy="520" r="2.4" fill="#b185ff"/>
    <circle cx="625" cy="692" r="2.8" fill="#ffffff"/>
    <circle cx="430" cy="815" r="3.6" fill="#7b4dff"/>
  </g>
  <rect width="1800" height="1200" filter="url(#grain)" opacity="0.42"/>
</svg>
